# xmcd CD database file
#
# Track frame offsets:
#	150
#	19606
#	42768
#	62863
#	78212
#	97828
#	120338
#	145213
#	165770
#	184944
#	207719
#	233161
#	254989
#	273763
#	297451
#
# Disc length: 4289 seconds
#
# Revision: 0
# Processed by: cddbd v1.5.2PL0 Copyright (c) Steve Scherf et al.
# Submitted via: CDex 1.70beta2
#
DISCID=cf10bf0f
DTITLE=Dana Gillespie - These Blue Nights
DYEAR=2007
DGENRE=Blues
TTITLE0=Raise A Little Hell
TTITLE1=Blue Room
TTITLE2=Come On
TTITLE3=Blue Blood
TTITLE4=Hot Stuff
TTITLE5=Who's Got The Blues To Blame
TTITLE6=Be My Sugar
TTITLE7=Blue Night
TTITLE8=Travelling Man Blues
TTITLE9=Blues Line
TTITLE10=Three Hundred Pounds Of Joy
TTITLE11=Have I Got Blues For You
TTITLE12=True Blue Love
TTITLE13=These Blue Nights
TTITLE14=It Makes Me Blue
EXTD=YEAR: 2007
EXTT0=
EXTT1=
EXTT2=
EXTT3=
EXTT4=
EXTT5=
EXTT6=
EXTT7=
EXTT8=
EXTT9=
EXTT10=
EXTT11=
EXTT12=
EXTT13=
EXTT14=
PLAYORDER=
